<?xml version="1.0" encoding="UTF-8"?><svg version="1.1" width="39px" height="38px" viewBox="0 0 39.0 38.0" xmlns="http://www.w3.org/2000/svg" xmlns:xlink="http://www.w3.org/1999/xlink"><defs><clipPath id="i0"><path d="M1920,0 L1920,1080 L0,1080 L0,0 L1920,0 Z"></path></clipPath><filter id="i1" x="-36.8421053%" y="-31.5789474%" filterUnits="userSpaceOnUse" width="152.631579%" height="152.631579%"><feGaussianBlur stdDeviation="2" in="SourceAlpha" result="i2"></feGaussianBlur><feOffset dx="0" dy="2" in="i2" result="i3"></feOffset><feColorMatrix values="0 0 0 0.0 0 0 0 0 0.0 0 0 0 0 0.0 0 0 0 0 0.09623579545454546 0" type="matrix" in="i3"></feColorMatrix></filter><clipPath id="i4"><path d="M15,0 C23.2842712,0 30,6.71572875 30,15 C30,23.2842712 23.2842712,30 15,30 C6.71572875,30 0,23.2842712 0,15 C0,6.71572875 6.71572875,0 15,0 Z"></path></clipPath><clipPath id="i5"><path d="M5.5356146,0 C8.59285012,0 11.0712292,2.47837908 11.0712292,5.5356146 C11.0712292,8.59285012 8.59285012,11.0712292 5.5356146,11.0712292 C2.47837908,11.0712292 0,8.59285012 0,5.5356146 C0,2.47837908 2.47837908,0 5.5356146,0 Z"></path></clipPath><clipPath id="i6"><path d="M10.3578682,17.1427553 C10.5545592,17.1427553 10.7141924,17.3023886 10.7141924,17.4990795 L10.7141924,19.4650387 C10.7141924,19.6617296 10.5545592,19.8213628 10.3578682,19.8213628 L9.8205314,19.8213628 C9.62384046,19.8213628 9.46420724,19.6617296 9.46420724,19.4650387 L9.46420724,17.4990795 C9.46420724,17.3023886 9.62384046,17.1427553 9.8205314,17.1427553 L10.3578682,17.1427553 Z M4.69611488,14.8715451 L5.07619398,15.2516242 C5.21539795,15.3908282 5.21539795,15.6165002 5.07619398,15.7554666 L3.68605466,17.1456059 C3.54685069,17.2848099 3.32117872,17.2848099 3.1822123,17.1456059 L2.80213319,16.7655268 C2.66292922,16.6263229 2.66292922,16.4006509 2.80213319,16.2616845 L4.19227252,14.8715451 C4.33123894,14.7323412 4.55691091,14.7323412 4.69611488,14.8715451 Z M15.9341038,14.7451688 L17.3242431,16.1353082 C17.4634471,16.2745121 17.4634471,16.5001841 17.3242431,16.6391505 L16.944164,17.0192296 C16.80496,17.1584336 16.5792881,17.1584336 16.4403216,17.0192296 L15.0501823,15.6290903 C14.9109783,15.4901239 14.9109783,15.2644519 15.0501823,15.1252479 L15.4302614,14.7451688 C15.5694654,14.6059649 15.7951374,14.6059649 15.9341038,14.7451688 Z M2.32228333,9.28557006 C2.51897426,9.28557006 2.67860749,9.44520328 2.67860749,9.64189422 L2.67860749,10.1792311 C2.67860749,10.375922 2.51897426,10.5355552 2.32228333,10.5355552 L0.35632416,10.5355552 C0.159633224,10.5355552 0,10.375922 0,10.1792311 L0,9.64189422 C0,9.44520328 0.159633224,9.28557006 0.35632416,9.28557006 L2.32228333,9.28557006 Z M19.6436758,9.10717043 C19.8403668,9.10717043 20,9.26680365 20,9.46349459 L20,10.0008314 C20,10.1975224 19.8403668,10.3571556 19.6436758,10.3571556 L17.6777167,10.3571556 C17.4810257,10.3571556 17.3213925,10.1975224 17.3213925,10.0008314 L17.3213925,9.46349459 C17.3213925,9.26680365 17.4810257,9.10717043 17.6777167,9.10717043 L19.6436758,9.10717043 Z M3.55967836,2.62349602 L4.94981768,4.01363534 C5.08902165,4.15283931 5.08902165,4.37827373 4.94981768,4.5174777 L4.56973858,4.8975568 C4.43053461,5.03676078 4.20486264,5.03676078 4.06589621,4.8975568 L2.67575689,3.50741748 C2.53655292,3.36821351 2.53655292,3.14254154 2.67575689,3.00357512 L3.055836,2.62349602 C3.19503997,2.48429204 3.42071194,2.48429204 3.55967836,2.62349602 Z M16.8177877,2.49711971 L17.1978668,2.87719882 C17.3370708,3.01640279 17.3370708,3.24207476 17.1978668,3.38104118 L15.8077275,4.7711805 C15.6685235,4.91038447 15.4430891,4.91038447 15.3038851,4.7711805 L14.923806,4.3911014 C14.784602,4.25189743 14.784602,4.02622546 14.923806,3.88725904 L16.3139453,2.49711971 C16.4531493,2.35791574 16.6788213,2.35791574 16.8177877,2.49711971 Z M10.1794686,0 C10.3761595,0 10.5357928,0.159633224 10.5357928,0.35632416 L10.5357928,2.32228333 C10.5357928,2.51897426 10.3761595,2.67860749 10.1794686,2.67860749 L9.64213177,2.67860749 C9.44544083,2.67860749 9.28580761,2.51897426 9.28580761,2.32228333 L9.28580761,0.35632416 C9.28580761,0.159633224 9.44544083,0 9.64213177,0 L10.1794686,0 Z"></path></clipPath></defs><g transform="translate(-1797.0 -17.0)"><g clip-path="url(#i0)"><g transform="translate(-0.3564356435645095 0.0)"><g transform="translate(1798.0 17.0)"><g transform="translate(4.0 2.0)"><path d="M15,30 C23.2842712,30 30,23.2842712 30,15 C30,6.71572875 23.2842712,0 15,0 C6.71572875,0 0,6.71572875 0,15 C0,23.2842712 6.71572875,30 15,30 Z" stroke="none" fill="#000000" filter="url(#i1)"></path><g clip-path="url(#i4)"><polygon points="0,0 30,0 30,30 0,30 0,0" stroke="none" fill="#FFFFFF"></polygon></g></g><g transform="translate(9.0 6.999999999999915)"><g transform="translate(4.642903804354282 4.464266625491433)"><g clip-path="url(#i5)"><polygon points="0,0 11.0712292,0 11.0712292,11.0712292 0,11.0712292 0,0" stroke="none" fill="#F9AA26"></polygon></g></g><g clip-path="url(#i6)"><polygon points="0,0 20,0 20,19.8213628 0,19.8213628 0,0" stroke="none" fill="#F9AA26"></polygon></g></g></g></g></g></g></svg>