<?xml version="1.0" encoding="UTF-8"?><svg version="1.1" width="8px" height="8px" viewBox="0 0 8.0 8.0" xmlns="http://www.w3.org/2000/svg" xmlns:xlink="http://www.w3.org/1999/xlink"><defs><clipPath id="i0"><path d="M1920,0 L1920,1080 L0,1080 L0,0 L1920,0 Z"></path></clipPath><clipPath id="i1"><path d="M4,0 C6.209139,0 8,1.790861 8,4 C8,6.209139 6.209139,8 4,8 C1.790861,8 0,6.209139 0,4 C0,1.790861 1.790861,0 4,0 Z"></path></clipPath></defs><g transform="translate(-20.0 -203.0)"><g clip-path="url(#i0)"><g transform="translate(0.0 68.0)"><g transform="translate(0.0 115.0)"><g transform="translate(20.0 20.0)"><g clip-path="url(#i1)"><path d="M4,8 C6.209139,8 8,6.209139 8,4 C8,1.790861 6.209139,0 4,0 C1.790861,0 0,1.790861 0,4 C0,6.209139 1.790861,8 4,8 Z" stroke="rgba(221, 221, 221, 0.800317)" stroke-width="2" fill="none" stroke-miterlimit="1"></path></g></g></g></g></g></g></svg>